HIERARCHY
ROOT Hips
{
  OFFSET 279.157 85.6768 304.565
  CHANNELS 6 Xposition Yposition Zposition Zrotation Xrotation Yrotation
  JOINT LeftUpLeg
  {
    OFFSET 8.64259 1.95398 -2.38835
    CHANNELS 3 Zrotation Xrotation Yrotation
    JOINT LeftLeg
    {
      OFFSET 43.7702 0 0
      CHANNELS 3 Zrotation Xrotation Yrotation
      JOINT LeftFoot
      {
        OFFSET 40.6238 0 0
        CHANNELS 3 Zrotation Xrotation Yrotation
        JOINT LeftToeBase
        {
          OFFSET 12.7242 0 0
          CHANNELS 3 Zrotation Xrotation Yrotation
          End Site
          {
            OFFSET 0 0 0
          }
        }
      }
    }
  }
  JOINT RightUpLeg
  {
    OFFSET -8.2249 1.95398 -2.59336
    CHANNELS 3 Zrotation Xrotation Yrotation
    JOINT RightLeg
    {
      OFFSET 43.5653 0 0
      CHANNELS 3 Zrotation Xrotation Yrotation
      JOINT RightFoot
      {
        OFFSET 40.6238 0 0
        CHANNELS 3 Zrotation Xrotation Yrotation
        JOINT RightToeBase
        {
          OFFSET 12.7242 0 0
          CHANNELS 3 Zrotation Xrotation Yrotation
          End Site
          {
            OFFSET 0 0 0
          }
        }
      }
    }
  }
  JOINT Spine
  {
    OFFSET 0.165834 0.87714 6.61349
    CHANNELS 3 Zrotation Xrotation Yrotation
    JOINT Spine1
    {
      OFFSET 7.38963 1.71661e-005 0
      CHANNELS 3 Zrotation Xrotation Yrotation
      JOINT Spine2
      {
        OFFSET 11.9445 1.14441e-005 0
        CHANNELS 3 Zrotation Xrotation Yrotation
        JOINT Spine3
        {
          OFFSET 14.7254 4.19617e-005 0
          CHANNELS 3 Zrotation Xrotation Yrotation
          JOINT Spine4
          {
            OFFSET 10.9679 0 0
            CHANNELS 3 Zrotation Xrotation Yrotation
            JOINT RightShoulder
            {
              OFFSET 2.46616 -1.6653 3.69651
              CHANNELS 3 Zrotation Xrotation Yrotation
              JOINT RightArm
              {
                OFFSET 13.0012 0 0
                CHANNELS 3 Zrotation Xrotation Yrotation
                JOINT RightForeArm
                {
                  OFFSET 28.7848 1.52588e-005 0
                  CHANNELS 3 Zrotation Xrotation Yrotation
                  JOINT RightHand
                  {
                    OFFSET 26.5688 1.52588e-005 0
                    CHANNELS 3 Zrotation Xrotation Yrotation
                    End Site
                    {
                      OFFSET 0 0 0
                    }
                  }
                }
              }
            }
            JOINT LeftShoulder
            {
              OFFSET 2.38034 -1.29275 -3.7523
              CHANNELS 3 Zrotation Xrotation Yrotation
              JOINT LeftArm
              {
                OFFSET 16.3182 6.10351e-005 0
                CHANNELS 3 Zrotation Xrotation Yrotation
                JOINT LeftForeArm
                {
                  OFFSET 27.0901 0 0
                  CHANNELS 3 Zrotation Xrotation Yrotation
                  JOINT LeftHand
                  {
                    OFFSET 24.5451 1.52588e-005 0
                    CHANNELS 3 Zrotation Xrotation Yrotation
                    End Site
                    {
                      OFFSET 0 0 0
                    }
                  }
                }
              }
            }
            JOINT Neck
            {
              OFFSET 5.0226 -0.0266342 0
              CHANNELS 3 Zrotation Xrotation Yrotation
              JOINT Head
              {
                OFFSET 6.69364 2.86102e-005 0
                CHANNELS 3 Zrotation Xrotation Yrotation
                End Site
                {
                  OFFSET 0 0 0
                }
              }
            }
          }
        }
      }
    }
  }
}
MOTION
Frames:	15
Frame Time:	0.0416667
290.113 89.2716 304.56 -77.7285 6.54533 -89.4437 -147.501 -3.23109 119.593 11.2466 23.1426 -14.4793 -3.87149 -50.4306 -9.16903 173.845 39.4736 -37.6501 153.713 38.9275 96.2458 -58.1438 -1.54305 16.2877 88.8548 -14.8651 -3.59711 18.0497 1.64576 9.0316 -5.90727 14.8683 -94.3001 -3.62806 -13.1815 -9.58751 -15.2626 -13.5888 -8.99503 -37.841 -9.71547 -13.0882 -17.8284 -9.71548 -13.0882 74.0532 -58.4224 -120.772 -13.4283 -7.89089 -22.496 -0.224522 -19.8789 -24.1596 -24.0907 -0.606204 -6.8878 114.637 -74.5 -72.0343 21.3334 -46.1109 -97.9588 39.6353 14.4027 -68.6624 16.8531 -0.90631 -9.18386 141.861 -14.6124 -16.1304 -64.9719 26.0274 6.62305 
283.389 88.1364 299.274 -74.7382 20.5849 -91.5432 -174.197 3.15644 100.015 -45.7793 43.6486 12.6291 25.4833 -15.342 -17.3823 17.3126 -41.0689 63.5278 159.934 36.5618 101.771 -60.1013 1.61124 10.1889 93.187 -16.0465 2.24861 21.3492 0.904266 8.41867 -4.46691 13.9354 -93.4889 -1.43037 -10.1377 -7.46204 -13.0807 -10.4553 -7.00743 -35.6347 -7.43854 -10.1549 -15.6221 -7.43853 -10.1549 83.3507 -50.7142 -110.633 -3.13016 -6.48295 -28.1789 -16.7283 -47.6756 -31.1664 -18.1805 -13.0178 60.1754 73.9337 -80.5279 -108.56 31.9664 -31.0263 -76.6424 41.8741 15.6285 -69.5815 20.0608 -0.723907 -7.47739 135.613 -4.96221 -13.1763 -57.5163 24.0298 1.70682 
276.944 85.6206 294.08 -69.5577 36.3941 -95.5687 -174.047 13.9692 97.6845 -69.0535 24.5669 4.55318 60.0049 0.852536 5.24364 -0.95793 -21.3086 3.80196 167.557 34.7456 104.525 -62.6505 0.507115 6.03814 100.655 -19.5847 6.0392 23.9603 0.205982 8.35251 -2.19284 12.3734 -92.5924 1.95853 -5.37676 -5.17738 -9.71088 -5.59914 -4.93593 -32.207 -3.57605 -6.55015 -12.1944 -3.57605 -6.55016 93.0574 -41.3223 -97.7055 14.426 0.611209 -39.3476 172.538 37.5151 -170.488 -13.1095 -41.761 -164.946 -3.47283 -81.9996 176.025 28.2207 -7.19178 -53.7202 61.7644 15.1292 -82.8592 18.6256 0.17513 -3.04769 121.319 8.75166 -5.53509 -50.1253 18.8569 -5.44996 
269.349 85.1966 287.275 -65.1571 44.0305 -101.379 -172.216 34.0931 92.6361 -87.7784 6.07002 3.55255 65.9902 5.54044 7.57367 22.9503 0.45274 -12.0654 172.417 27.1973 101.771 -58.0663 -4.45393 3.24679 103.132 -23.4322 4.76787 27.2558 -0.882259 10.1582 -0.456787 10.3197 -91.8378 6.18883 -1.68733 -3.55018 -5.48551 -1.84185 -3.4726 -27.9842 -0.543225 -3.89262 -7.9716 -0.543225 -3.89263 95.0333 -26.5061 -97.621 29.3517 0.489649 -44.766 -6.21236 27.562 -4.10953 -23.2242 24.4461 -41.3287 -67.6758 -65.058 110.288 6.35488 20.6955 -14.065 64.7381 5.53772 -83.1418 14.0156 -0.293007 -6.15402 91.6912 16.1186 6.48026 -38.9648 10.0277 -8.39697 
261.555 85.7298 278.918 -61.2722 45.8651 -108.535 -174.254 53.5924 89.9716 -90.1115 -1.22642 3.77931 76.6329 11.5713 5.47472 25.0397 -0.00881714 -7.62849 174.18 17.5712 97.2827 -49.1566 -7.16232 1.43376 99.0176 -24.6784 0.789546 35.3296 -2.73751 7.87764 1.21996 8.29469 -90.7184 10.2984 2.1021 -1.60821 -1.37201 2.02929 -1.69917 -23.9177 2.48818 -0.901886 -3.90502 2.4882 -0.901883 92.2291 -17.4698 -107.255 23.7602 -4.03285 -37.4937 13.916 18.5905 0.00791568 -25.9895 10.7938 -42.4262 -83.5883 -39.3004 87.0993 -29.7191 36.6572 36.4288 67.8581 -7.05204 -84.3053 21.8224 -0.279375 -5.25095 51.5293 5.09475 10.8797 -18.8173 -1.37471 -3.51262 
251.532 87.6655 267.347 -62.5194 36.9099 -111.059 177.71 65.8769 88.3379 -76.0048 3.58021 3.21632 82.3543 14.4681 2.14833 26.8845 -0.51002 -2.04554 173.71 6.39664 93.598 -34.5997 -9.09394 1.40606 77.7541 -13.1981 -5.95428 48.022 -5.89334 11.8082 1.80325 7.52547 -89.9692 11.8614 3.60316 -0.263755 0.195381 3.58805 -0.422278 -22.3796 3.51581 0.832673 -2.36691 3.51583 0.832679 94.3781 -8.46387 -106.285 16.0973 -28.2724 -32.4246 33.8085 52.5192 -1.28852 -24.7455 15.1031 -51.1055 -85.1971 -23.5791 81.1076 -46.8103 42.1844 56.0487 69.7238 -14.3896 -81.0603 24.9069 -0.721009 -6.96946 38.0468 -5.8966 9.33713 -11.2193 -9.97954 -0.0662338 
236.985 91.5263 253.686 -69.6375 37.2436 -115.884 -170.738 57.1642 74.016 -53.379 4.17318 -3.35465 84.0631 13.5454 -2.04928 22.8981 -2.45415 -2.3835 172.622 -11.1717 84.9367 -22.101 -18.8613 -4.19959 56.8089 0.766651 -4.63495 29.1774 -1.23612 10.3157 2.6873 8.15867 -88.5644 10.4888 6.0106 2.28897 -1.16976 6.10551 2.02139 -23.7729 5.04465 3.99239 -3.76025 5.0447 3.99241 95.991 -5.74014 -102.782 25.9257 -44.8092 -21.8982 47.5516 63.9605 -19.8538 -26.5926 16.2711 -51.5304 -85.5939 -20.1489 79.291 -37.7181 42.8929 48.5935 70.2425 -16.7156 -82.5974 23.1678 -1.30653 -9.80368 36.0972 -13.4449 5.92952 -12.3621 -15.4663 0.561724 
224.533 92.2121 240.815 -70.49 34.4508 -113.757 -167.283 52.8721 74.1891 -42.6958 12.1113 -8.39613 79.1521 11.6435 -0.85862 22.6914 -4.14105 2.94633 175.174 -8.7701 90.6973 -37.7375 -19.5352 -3.13145 59.5515 0.348482 3.33833 16.8462 1.62576 10.4547 2.69532 8.04048 -88.5211 10.7339 6.04901 2.38576 -0.924545 6.14811 2.11638 -23.5276 5.05233 4.09618 -3.51496 5.05233 4.09617 93.4691 -14.1291 -105.76 36.3114 -36.1888 -9.70885 30.2278 45.2226 -4.63883 -28.355 16.2202 -51.1871 -86.8371 -31.4923 79.5825 -17.95 37.0172 23.9463 72.0378 -11.8808 -86.2314 20.2936 -1.15633 -9.53045 34.5588 -16.066 2.32514 -10.9134 -16.3099 0.576449 
211.97 91.813 228.118 -77.7053 30.43 -108.937 -169.5 40.1692 76.6552 -43.4529 8.61707 -8.0458 69.0207 5.14553 3.3615 30.0127 2.57788 -9.45599 170.355 0.400213 90.7038 -65.8381 -9.698 1.17505 60.2637 -0.58149 -0.953741 15.4042 1.19336 13.654 1.67929 8.34631 -88.5996 10.1351 3.98465 2.44538 -1.53169 4.08835 2.26749 -24.0804 3.06591 3.52985 -4.06775 3.06589 3.52984 90.5768 -25.0178 -107.587 42.3444 -18.5996 -2.06881 15.8844 18.8859 0.00898232 -30.0433 12.3999 -42.6028 -90.5554 -46.3688 77.0555 -10.371 26.2072 -0.404734 74.6009 -3.54583 -89.5415 5.31642 -0.625867 -12.3237 31.8541 -15.8444 -6.84165 -9.2252 -12.6417 5.25765 
201.064 90.3109 216.193 -77.921 29.8187 -111.181 -167.721 30.3097 77.2797 -49.536 7.32641 -6.87652 82.4887 14.2685 -0.985342 34.7699 3.65213 -3.1543 171.081 23.1862 87.9804 -94.1595 2.28034 -1.82916 67.9605 -6.452 -2.86873 16.3251 1.33877 12.2064 0.566181 8.11906 -88.2993 10.6007 1.90937 3.20202 -1.07279 2.04837 3.11498 -23.5779 0.859623 3.62726 -3.56529 0.859616 3.62726 90.4585 -28.8931 -106.205 49.5186 -8.9638 12.0529 1.51818 -6.50724 -4.02096 -21.1133 4.27119 -30.0421 -92.7702 -50.1703 74.6153 -3.69309 22.1763 -34.3725 75.1346 -2.70319 -96.1799 -34.5609 2.28204 -13.0876 28.9258 -12.0053 -8.94986 -9.21209 -8.19931 3.01102 
188.906 89.5192 205.087 -82.1323 27.9245 -105.442 -171.22 14.6636 86.4898 -44.4689 7.75084 -3.13729 88.9601 19.4505 -2.87638 44.7219 8.16841 0.799154 176.912 41.8303 88.5584 -103.912 -4.23662 -3.44185 71.5539 -9.02907 -6.68512 17.3452 1.31393 11.1976 -1.20693 8.2544 -88.8516 10.3786 -1.87805 2.44845 -1.29373 -1.76853 2.52866 -23.827 -2.52699 1.77108 -3.8143 -2.52703 1.77105 92.6452 -24.4088 -103.404 56.2114 -6.57746 33.1524 -18.8539 -16.8965 -37.067 -22.1916 2.64994 -26.6036 -89.5034 -36.853 76.4093 -8.94447 2.69904 -59.0117 83.0154 -3.74233 -100.863 5.62669 0.579292 -6.88228 27.2398 -4.83128 -8.47162 -7.63515 -1.56327 2.67326 
175.584 91.6494 192.253 -80.7579 33.6824 -99.531 -168.797 -5.44228 93.0126 -24.0354 10.8552 -1.16073 72.1242 11.9044 2.3724 61.7982 17.4305 5.12758 -176.057 53.8686 89.2192 -88.7199 1.89713 -4.33988 78.2331 -10.7177 -5.7648 17.0829 2.02201 8.58255 -2.20617 7.87717 -89.7831 11.1396 -4.28971 0.860782 -0.52469 -4.24766 1.04906 -23.1167 -4.34979 -0.47076 -3.10401 -4.34977 -0.470759 92.8068 -19.9839 -104.722 54.323 -9.8526 49.4705 -14.8606 -13.8167 -49.062 -31.0278 4.41197 -27.3687 -84.6358 -20.1406 81.2328 -15.3344 -6.5566 -60.2918 72.1409 -3.76091 -97.2078 18.5077 0.73756 0.645353 29.2735 4.08185 -7.62309 -13.3855 6.46757 4.84406 
160.379 95.525 177.591 -78.4224 39.5716 -94.9303 -171.777 -13.8826 97.24 -18.301 12.2903 4.30003 49.5346 -4.71158 2.38362 31.7166 2.44501 -4.74777 -174.905 52.9145 92.1776 -58.0843 -6.6117 -4.6427 74.7568 -8.57232 -4.90373 19.7474 1.88787 5.77349 -2.43391 7.87172 -91.1307 11.095 -5.36925 -1.73076 -0.565637 -5.44022 -1.49218 -23.1612 -4.60067 -3.26687 -3.14851 -4.60069 -3.26687 89.6969 -19.387 -112.306 44.9739 -4.698 56.5626 -14.9594 -14.3267 -51.5957 -28.7715 4.18343 -28.1536 -82.8777 -18.9251 85.0549 -13.3797 -8.57146 -53.4449 72.5366 -5.49158 -97.7298 21.6805 0.551121 -1.35871 39.6989 13.2964 1.04952 -21.6054 11.9045 1.07073 
146.357 95.5942 162.67 -77.2784 45.8497 -94.8705 -173.134 -10.6406 93.9612 -41.1573 21.5916 4.30414 55.8502 -1.47972 4.90689 19.8218 -2.08654 -8.77552 -174.643 47.6776 94.1182 -40.3597 -17.7591 -4.97326 75.7995 -9.87842 -3.41682 20.2789 1.56489 6.51343 -1.72794 7.78483 -91.5934 11.2508 -4.18001 -2.75654 -0.416023 -4.29721 -2.56977 -22.962 -3.15896 -3.88515 -2.9494 -3.15893 -3.88515 88.3372 -21.3851 -114.416 40.4017 -1.6584 46.8252 -14.642 -16.9006 -52.2777 -32.5497 3.69466 -23.8725 -85.6609 -29.5986 81.5973 -4.36715 5.4965 -46.3275 71.3871 -3.43879 -92.2233 21.9782 0.0591606 -3.65025 40.1562 15.8297 5.75384 -20.237 12.133 0.222675 
133.862 94.3358 147.686 -81.3776 47.325 -93.3344 -169.815 1.10279 89.9838 -68.1524 9.37017 1.92061 55.213 -2.21149 5.03773 28.0271 1.84899 -9.93752 -178.867 39.2391 95.0484 -40.4095 -13.9386 -2.54619 71.3678 -6.72427 -3.3725 20.1822 2.1362 3.87672 -1.21598 7.96378 -91.4962 10.9044 -3.11289 -2.68342 -0.765242 -3.22793 -2.54383 -23.2954 -2.16299 -3.49441 -3.28277 -2.16298 -3.49441 88.5035 -29.8074 -109.729 32.5514 1.08938 24.3421 -18.4651 -19.0263 -55.2191 -35.5918 3.13126 -21.0852 -90.0406 -44.8071 77.3967 -2.53819 19.1163 -29.1824 72.8181 3.94429 -89.9277 24.2207 -0.0341632 -4.12682 38.3373 14.8721 9.45435 -18.0272 9.79351 -1.04318 
